<svg xmlns="http://www.w3.org/2000/svg" width="32" height="32" viewBox="0 0 32 32" fill="none">
  <path fill-rule="evenodd" clip-rule="evenodd" d="M27.9811 15.7926C27.9811 23.409 21.7173 29.5833 13.9906 29.5833C6.26378 29.5833 0 23.409 0 15.7926C0 8.17626 6.26378 2.00195 13.9906 2.00195C21.7173 2.00195 27.9811 8.17626 27.9811 15.7926ZM26.8619 15.7926C26.8619 22.7997 21.0992 28.4801 13.9906 28.4801C6.88193 28.4801 1.11924 22.7997 1.11924 15.7926C1.11924 8.78557 6.88193 3.10521 13.9906 3.10521C21.0992 3.10521 26.8619 8.78557 26.8619 15.7926ZM11.7521 13.0345V13.5861H12.8713V22.4122H11.7521V22.9638H12.8713H15.1098H16.229V22.4122H15.1098V13.0345H12.8713H11.7521ZM15.6694 10.2764C15.6694 11.1903 14.9178 11.9312 13.9906 11.9312C13.0633 11.9312 12.3117 11.1903 12.3117 10.2764C12.3117 9.3624 13.0633 8.62148 13.9906 8.62148C14.9178 8.62148 15.6694 9.3624 15.6694 10.2764Z" fill="white"/>
</svg>